<?xml version="1.0" encoding="utf-8"?>
<!-- Generator: Adobe Illustrator 16.0.3, SVG Export Plug-In . SVG Version: 6.00 Build 0)  -->
<!DOCTYPE svg PUBLIC "-//W3C//DTD SVG 1.1//EN" "http://www.w3.org/Graphics/SVG/1.1/DTD/svg11.dtd">
<svg version="1.1" id="Layer_1" xmlns="http://www.w3.org/2000/svg" xmlns:xlink="http://www.w3.org/1999/xlink" x="0px" y="0px"
	 width="402px" height="402px" viewBox="0 0 402 402" enable-background="new 0 0 402 402" xml:space="preserve">
<path fill="#3AB44A" d="M1,1v400h400V1H1z M186,360.85H38v-70.455h148V360.85z M186,276.385H38v-28.182h148V276.385z M186,234.191
	H38V206.01h148V234.191z M186,192H38V37h148V192z M365,360.535H217v-28.182h148V360.535z M365,318.385H217V205.656h148V318.385z
	 M365,191.727H217v-28.182h148V191.727z M365,149.414H217v-28.182h148V149.414z M365,107.454H217V37h148V107.454z"/>
</svg>
